# xmcd
#
# Track frame offsets: 
#        150
#        17389
#        39618
#        54231
#        68257
#        87953
#        101179
#        113900
#        135363
#        164762
#
# Disc length: 2358 seconds
#
# Revision: 0
# Processed by: cddbd v1.5.2PL0 Copyright (c) Steve Scherf et al.
# Submitted via: ExactAudioCopy v1.3
#
DISCID=7709340a
DTITLE=Vince Salerno and Gerald McClendon - Grabbing the Blues by the Ho
DTITLE=rns
DYEAR=2019
DGENRE=Blues
TTITLE0=Come On
TTITLE1=Same Old Blues
TTITLE2=Love Man
TTITLE3=Crying for My Baby
TTITLE4=I Wish You Would
TTITLE5=The Happy Song
TTITLE6=Up the Line
TTITLE7=Bag's Groove
TTITLE8=Stolen Moments
TTITLE9=The Wobble
EXTD=
EXTT0=
EXTT1=
EXTT2=
EXTT3=
EXTT4=
EXTT5=
EXTT6=
EXTT7=
EXTT8=
EXTT9=
PLAYORDER=
